<?xml version="1.0" encoding="UTF-8" standalone="no"?>
<svg
   xmlns:dc="http://purl.org/dc/elements/1.1/"
   xmlns:cc="http://creativecommons.org/ns#"
   xmlns:rdf="http://www.w3.org/1999/02/22-rdf-syntax-ns#"
   xmlns:svg="http://www.w3.org/2000/svg"
   xmlns="http://www.w3.org/2000/svg"
   xmlns:sodipodi="http://sodipodi.sourceforge.net/DTD/sodipodi-0.dtd"
   xmlns:inkscape="http://www.inkscape.org/namespaces/inkscape"
   width="57.123371mm"
   height="6.3499999mm"
   viewBox="0 0 57.123371 6.3499999"
   version="1.1"
   id="svg8"
   inkscape:version="1.0 (4035a4fb49, 2020-05-01)"
   sodipodi:docname="рисунок.svg">
  <defs
     id="defs2">
    <clipPath
       id="clip0">
      <rect
         id="rect10"
         fill="#ffffff"
         height="24"
         width="25"
         x="0"
         y="0" />
    </clipPath>
  </defs>
  <sodipodi:namedview
     id="base"
     pagecolor="#ffffff"
     bordercolor="#666666"
     borderopacity="1.0"
     inkscape:pageopacity="0.0"
     inkscape:pageshadow="2"
     inkscape:zoom="0.98994949"
     inkscape:cx="-13.50675"
     inkscape:cy="153.25984"
     inkscape:document-units="mm"
     inkscape:current-layer="layer1"
     inkscape:document-rotation="0"
     showgrid="false"
     inkscape:window-width="1440"
     inkscape:window-height="838"
     inkscape:window-x="-8"
     inkscape:window-y="-8"
     inkscape:window-maximized="1" />
  <metadata
     id="metadata5">
    <rdf:RDF>
      <cc:Work
         rdf:about="">
        <dc:format>image/svg+xml</dc:format>
        <dc:type
           rdf:resource="http://purl.org/dc/dcmitype/StillImage" />
        <dc:title></dc:title>
      </cc:Work>
    </rdf:RDF>
  </metadata>
  <g
     transform="translate(-108.57366,-107.95)"
     inkscape:label="Слой 1"
     inkscape:groupmode="layer"
     id="layer1">
    <g
       id="g8"
       clip-path="url(#clip0)"
       transform="matrix(0.26458333,0,0,0.26458333,108.57366,107.95)">
      <path
         id="path2"
         fill="#34c759"
         d="M 17.0984,8.16492 H 7.90162 C 3.53781,8.16492 0,11.7087 0,16.0817 0,20.4547 3.53781,24 7.90162,24 H 17.0984 C 21.4622,24 25,20.4547 25,16.0817 25,11.7087 21.4622,8.16492 17.0984,8.16492 Z M 16.9261,23.0921 c -3.8624,0 -6.99409,-3.1384 -6.99409,-7.0089 0,-3.8705 3.13169,-7.00884 6.99409,-7.00884 3.8624,0 6.9941,3.13834 6.9941,7.00884 0,3.8705 -3.1317,7.0089 -6.9941,7.0089 z" />
      <path
         id="path4"
         fill="#34c759"
         d="m 16.0047,4.68437 c 0,0.9973 0.2585,1.93295 0.7122,2.74374 C 14.5112,7.04738 12.833,5.1206 12.833,2.80075 c 0,-0.29133 0.0262,-0.57649 0.0785,-0.85395 0.4307,-0.13102 0.889,-0.20193 1.3628,-0.20193 0.8152,0 1.5828,0.20964 2.2503,0.5765 -0.3337,0.7183 -0.5199,1.5183 -0.5199,2.363 z" />
      <path
         id="path6"
         fill="#34c759"
         d="m 22.2067,2.80077 c 0,2.11946 -1.3998,3.9106 -3.324,4.4948 C 18.552,7.39576 18.2074,7.46204 17.849,7.48516 H 17.8475 C 17.2676,6.70366 16.9246,5.7341 16.9246,4.68439 16.9246,4.03391 17.0568,3.41426 17.2953,2.8501 17.9674,1.26243 19.4856,0.123314 21.2838,0 c 0.5798,0.781503 0.9229,1.75106 0.9229,2.80077 z" />
    </g>
    <path
       id="path2-1"
       fill="#34c759"
       d="m 119.88046,110.79903 v 2.64478 h 0.58155 v -1.14089 h 1.0705 v 1.14089 h 0.58156 v -2.64478 h -0.58156 v 1.01494 h -1.0705 v -1.01494 z"
       style="stroke-width:0.264583" />
    <path
       id="path4-8"
       fill="#34c759"
       d="m 123.18166,110.79903 v 2.64478 h 2.00766 v -0.48895 h -1.4261 v -0.64823 h 1.28164 v -0.45191 h -1.28164 v -0.56674 h 1.39647 v -0.48895 z"
       style="stroke-width:0.264583" />
    <path
       id="path6-4"
       fill="#34c759"
       d="m 126.80595,112.42146 0.34449,-0.9705 h 0.007 l 0.33337,0.9705 z m 0.0556,-1.62243 -1.00012,2.64478 h 0.58526 l 0.20743,-0.58897 h 0.98901 l 0.20003,0.58897 h 0.60378 l -0.98902,-2.64478 z"
       style="stroke-width:0.264583" />
    <path
       id="path8"
       fill="#34c759"
       d="m 129.23059,110.79903 v 2.64478 h 1.87061 v -0.48895 h -1.28905 v -2.15583 z"
       style="stroke-width:0.264583" />
    <path
       id="path10"
       fill="#34c759"
       d="m 132.22716,111.28798 v 2.15583 h 0.58155 v -2.15583 h 0.79269 v -0.48895 h -2.16693 v 0.48895 z"
       style="stroke-width:0.264583" />
    <path
       id="path12"
       fill="#34c759"
       d="m 134.46199,110.79903 v 2.64478 h 0.58155 v -1.14089 h 1.07051 v 1.14089 h 0.58155 v -2.64478 h -0.58155 v 1.01494 h -1.07051 v -1.01494 z"
       style="stroke-width:0.264583" />
    <path
       id="path14"
       fill="#34c759"
       d="m 138.44846,112.41405 v 1.02976 h 0.58156 v -1.01495 l 0.9816,-1.62983 h -0.64823 l -0.61489,1.04458 -0.61859,-1.04458 h -0.65194 z"
       style="stroke-width:0.264583" />
    <path
       id="path16"
       fill="#34c759"
       d="m 142.77239,112.56592 h -0.56303 c -0.002,0.16298 0.0272,0.30374 0.0889,0.42227 0.0617,0.11854 0.14446,0.21609 0.24818,0.29264 0.10617,0.0765 0.22717,0.1321 0.36301,0.16668 0.13827,0.037 0.28027,0.0556 0.42597,0.0556 0.18026,0 0.3383,-0.021 0.47414,-0.063 0.13827,-0.042 0.2531,-0.10001 0.34449,-0.17409 0.0938,-0.0766 0.1642,-0.16669 0.21113,-0.27041 0.0469,-0.10371 0.0704,-0.21608 0.0704,-0.33708 0,-0.14816 -0.0321,-0.26917 -0.0963,-0.36301 -0.0618,-0.0963 -0.13583,-0.17286 -0.22225,-0.22965 -0.0864,-0.0568 -0.17409,-0.0975 -0.26299,-0.12224 -0.0864,-0.0272 -0.15436,-0.0457 -0.20373,-0.0556 -0.16547,-0.042 -0.30004,-0.0766 -0.40376,-0.10372 -0.10125,-0.0272 -0.1815,-0.0543 -0.24077,-0.0815 -0.0568,-0.0272 -0.0951,-0.0568 -0.11483,-0.0889 -0.0198,-0.0321 -0.0296,-0.0741 -0.0296,-0.12594 0,-0.0568 0.0123,-0.10372 0.037,-0.14076 0.0247,-0.037 0.0556,-0.0679 0.0926,-0.0926 0.0395,-0.0247 0.0827,-0.042 0.12965,-0.0519 0.0469,-0.01 0.0938,-0.0148 0.14076,-0.0148 0.0716,0 0.13705,0.006 0.19632,0.0185 0.0617,0.0123 0.11604,0.0333 0.16298,0.063 0.0469,0.0296 0.084,0.0704 0.11113,0.12224 0.0296,0.0519 0.0469,0.1173 0.0519,0.19632 h 0.56303 c 0,-0.15311 -0.0296,-0.28275 -0.0889,-0.38894 -0.0568,-0.10866 -0.13459,-0.19756 -0.23336,-0.2667 -0.0988,-0.0691 -0.21238,-0.11853 -0.34079,-0.14817 -0.12594,-0.0321 -0.25807,-0.0481 -0.39634,-0.0481 -0.11853,0 -0.23707,0.016 -0.3556,0.0482 -0.11853,0.0321 -0.22474,0.0815 -0.31856,0.14816 -0.0939,0.0667 -0.17039,0.15064 -0.22966,0.25188 -0.0568,0.0988 -0.0852,0.21608 -0.0852,0.3519 0,0.121 0.0222,0.22472 0.0667,0.31115 0.0469,0.084 0.10742,0.15434 0.18151,0.21114 0.0741,0.0568 0.15803,0.10371 0.25188,0.14076 0.0938,0.0346 0.19013,0.0642 0.28893,0.0889 0.0963,0.0272 0.19137,0.0519 0.28522,0.0741 0.0938,0.0222 0.1778,0.0482 0.25188,0.0778 0.0741,0.0296 0.13335,0.0667 0.1778,0.11112 0.0469,0.0444 0.0704,0.10249 0.0704,0.1741 0,0.0667 -0.0173,0.12223 -0.0519,0.16668 -0.0346,0.042 -0.0778,0.0753 -0.12965,0.10002 -0.0519,0.0247 -0.10742,0.042 -0.16668,0.0519 -0.0593,0.007 -0.11483,0.0111 -0.16669,0.0111 -0.0766,0 -0.15065,-0.009 -0.22225,-0.0259 -0.0716,-0.0198 -0.13459,-0.0482 -0.18891,-0.0852 -0.0519,-0.0395 -0.0939,-0.0901 -0.12594,-0.15187 -0.0321,-0.0617 -0.0482,-0.13705 -0.0482,-0.22595 z"
       style="stroke-width:0.264583" />
    <path
       id="path18"
       fill="#34c759"
       d="m 147.85591,113.44381 0.7112,-2.64478 h -0.57044 l -0.43339,1.82245 h -0.007 l -0.45192,-1.82245 h -0.54451 l -0.45932,1.80023 h -0.007 l -0.41844,-1.80023 h -0.58156 l 0.70009,2.64478 h 0.58883 l 0.4408,-1.80023 h 0.007 l 0.4482,1.80023 z"
       style="stroke-width:0.264583" />
    <path
       id="path20"
       fill="#34c759"
       d="m 149.39076,110.79903 v 2.64478 h 0.58155 v -2.64478 z"
       style="stroke-width:0.264583" />
    <path
       id="path22"
       fill="#34c759"
       d="m 151.62411,111.28798 v 2.15583 h 0.58155 v -2.15583 h 0.79269 v -0.48895 h -2.16694 v 0.48895 z"
       style="stroke-width:0.264583" />
    <path
       id="path24"
       fill="#34c759"
       d="m 155.62223,111.68803 h 0.56303 c -0.0175,-0.1531 -0.0593,-0.28892 -0.12594,-0.40746 -0.0667,-0.11853 -0.15187,-0.21731 -0.25559,-0.29633 -0.10134,-0.0815 -0.21749,-0.14323 -0.34819,-0.18521 -0.12859,-0.042 -0.26564,-0.063 -0.41116,-0.063 -0.20268,0 -0.38524,0.0358 -0.54822,0.10742 -0.1606,0.0716 -0.29633,0.17039 -0.40746,0.29633 -0.11112,0.12595 -0.19632,0.27411 -0.25559,0.4445 -0.0593,0.16793 -0.0889,0.35067 -0.0889,0.54822 0,0.19262 0.0296,0.37289 0.0889,0.54081 0.0593,0.16545 0.14447,0.30992 0.25559,0.43339 0.11113,0.12348 0.24686,0.22101 0.40746,0.29263 0.16298,0.0691 0.34554,0.10372 0.54822,0.10372 0.16298,0 0.3122,-0.0247 0.4482,-0.0741 0.13573,-0.0494 0.25426,-0.12099 0.3556,-0.21484 0.10107,-0.0938 0.18256,-0.20743 0.24447,-0.34078 0.0616,-0.13335 0.10002,-0.28276 0.11483,-0.44821 h -0.56303 c -0.0222,0.1778 -0.0841,0.32103 -0.18521,0.42968 -0.0989,0.10866 -0.23706,0.16299 -0.41486,0.16299 -0.13097,0 -0.2421,-0.0247 -0.33338,-0.0741 -0.0916,-0.0519 -0.16563,-0.11976 -0.22225,-0.20372 -0.0569,-0.084 -0.099,-0.1778 -0.12594,-0.28152 -0.0249,-0.10619 -0.037,-0.21484 -0.037,-0.32597 0,-0.11606 0.0122,-0.22842 0.037,-0.33708 0.027,-0.10865 0.0691,-0.20496 0.12594,-0.28892 0.0566,-0.0864 0.1307,-0.15434 0.22225,-0.20373 0.0913,-0.0519 0.20241,-0.0778 0.33338,-0.0778 0.0714,0 0.13943,0.0124 0.20372,0.037 0.0667,0.0222 0.12595,0.0543 0.1778,0.0963 0.0519,0.042 0.095,0.0914 0.12965,0.14817 0.0344,0.0543 0.0566,0.11483 0.0667,0.1815 z"
       style="stroke-width:0.264583" />
    <path
       id="path26"
       fill="#34c759"
       d="m 157.16025,110.79903 v 2.64478 h 0.58155 v -1.14089 h 1.07051 v 1.14089 h 0.58155 v -2.64478 h -0.58155 v 1.01494 h -1.07051 v -1.01494 z"
       style="stroke-width:0.264583" />
    <path
       id="path28"
       fill="#34c759"
       d="m 160.46145,110.79903 v 2.64478 h 2.00766 v -0.48895 h -1.4261 v -0.64823 h 1.28164 v -0.45191 h -1.28164 v -0.56674 h 1.39647 v -0.48895 z"
       style="stroke-width:0.264583" />
    <path
       id="path30"
       fill="#34c759"
       d="m 164.00052,111.99548 v -0.74454 h 0.63712 c 0.13335,0 0.23336,0.0296 0.30004,0.0889 0.0667,0.0568 0.10001,0.1494 0.10001,0.27781 0,0.13335 -0.0333,0.22966 -0.10001,0.28893 -0.0667,0.0593 -0.16669,0.0889 -0.30004,0.0889 z m -0.58155,-1.19645 v 2.64478 h 0.58155 v -1.03347 h 0.58156 c 0.14552,0 0.25056,0.0321 0.31485,0.0963 0.064,0.0642 0.1061,0.16545 0.12594,0.30374 0.0148,0.10619 0.0259,0.21732 0.0333,0.33338 0.007,0.11607 0.027,0.21609 0.0593,0.30004 h 0.58156 c -0.0273,-0.037 -0.0482,-0.0815 -0.063,-0.13335 -0.0124,-0.0543 -0.0222,-0.11113 -0.0296,-0.1704 -0.005,-0.0593 -0.009,-0.11729 -0.0111,-0.17409 -0.003,-0.0568 -0.005,-0.10619 -0.007,-0.14817 -0.005,-0.0667 -0.0148,-0.13335 -0.0296,-0.20002 -0.0124,-0.0667 -0.0333,-0.12718 -0.063,-0.18151 -0.0296,-0.0568 -0.068,-0.10495 -0.11483,-0.14446 -0.0471,-0.042 -0.10637,-0.0728 -0.1778,-0.0926 v -0.007 c 0.14816,-0.0593 0.25426,-0.1457 0.31855,-0.2593 0.0667,-0.11359 0.10002,-0.24817 0.10002,-0.40375 0,-0.10125 -0.0185,-0.19508 -0.0556,-0.28152 -0.0347,-0.0889 -0.0865,-0.16668 -0.15558,-0.23336 -0.0667,-0.0667 -0.14817,-0.11853 -0.24447,-0.15557 -0.0939,-0.0395 -0.20003,-0.0593 -0.31856,-0.0593 z"
       style="stroke-width:0.264583" />
  </g>
</svg>
